<svg width="16" height="17" viewBox="0 0 16 17" fill="none" xmlns="http://www.w3.org/2000/svg">
<path d="M11.3538 8.85375L6.35375 13.8537C6.28382 13.9238 6.1947 13.9714 6.09765 13.9908C6.00061 14.0101 5.90002 14.0002 5.8086 13.9623C5.71719 13.9244 5.63908 13.8603 5.58414 13.778C5.5292 13.6957 5.49992 13.5989 5.5 13.5V3.5C5.49992 3.40105 5.5292 3.3043 5.58414 3.22201C5.63908 3.13971 5.71719 3.07556 5.8086 3.03769C5.90002 2.99981 6.00061 2.98991 6.09765 3.00923C6.1947 3.02856 6.28382 3.07624 6.35375 3.14625L11.3538 8.14625C11.4002 8.19268 11.4371 8.24783 11.4623 8.30853C11.4874 8.36923 11.5004 8.43429 11.5004 8.5C11.5004 8.5657 11.4874 8.63077 11.4623 8.69147C11.4371 8.75217 11.4002 8.80731 11.3538 8.85375Z" fill="#AAB450"/>
</svg>
