<svg width="22" height="22" viewBox="0 0 22 22" fill="none" xmlns="http://www.w3.org/2000/svg">
<path d="M11 2.0625C9.45696 2.06216 7.94012 2.46133 6.59712 3.22113C5.25412 3.98094 4.13071 5.07551 3.33624 6.3983C2.54177 7.7211 2.1033 9.22704 2.06352 10.7696C2.02373 12.3121 2.38399 13.8386 3.10922 15.2006L2.13383 18.1268C2.05303 18.3691 2.04131 18.6291 2.09996 18.8776C2.15862 19.1262 2.28535 19.3535 2.46593 19.5341C2.64652 19.7147 2.87383 19.8414 3.12239 19.9C3.37095 19.9587 3.63093 19.947 3.8732 19.8662L6.79937 18.8908C7.998 19.5283 9.32612 19.8844 10.6829 19.932C12.0397 19.9796 13.3895 19.7175 14.6299 19.1656C15.8703 18.6136 16.9686 17.7863 17.8415 16.7465C18.7144 15.7067 19.339 14.4817 19.6678 13.1645C19.9966 11.8473 20.021 10.4725 19.7391 9.14447C19.4572 7.81642 18.8765 6.57004 18.0411 5.49993C17.2056 4.42982 16.1373 3.5641 14.9173 2.9685C13.6973 2.3729 12.3576 2.06306 11 2.0625ZM11 18.5625C9.67053 18.5634 8.36438 18.2133 7.21359 17.5476C7.12933 17.4987 7.03566 17.4683 6.93876 17.4584C6.84187 17.4485 6.74397 17.4592 6.65156 17.49L3.4375 18.5625L4.50914 15.3484C4.54003 15.2561 4.55095 15.1582 4.54117 15.0613C4.53139 14.9644 4.50114 14.8707 4.45242 14.7864C3.6188 13.3452 3.28411 11.6691 3.50026 10.0182C3.71641 8.36734 4.47132 6.83394 5.64789 5.65588C6.82445 4.47783 8.3569 3.72098 10.0075 3.50275C11.6581 3.28451 13.3346 3.61709 14.7769 4.44888C16.2192 5.28068 17.3467 6.5652 17.9844 8.10318C18.6222 9.64115 18.7346 11.3466 18.3042 12.955C17.8738 14.5634 16.9246 15.9847 15.604 16.9986C14.2833 18.0125 12.665 18.5622 11 18.5625Z" fill="black"/>
</svg>
