<svg width="22" height="22" viewBox="0 0 22 22" fill="none" xmlns="http://www.w3.org/2000/svg">
<path d="M12.3752 6.87499C12.3752 6.69265 12.4477 6.51778 12.5766 6.38885C12.7055 6.25992 12.8804 6.18749 13.0627 6.18749H21.3127C21.4951 6.18749 21.6699 6.25992 21.7989 6.38885C21.9278 6.51778 22.0002 6.69265 22.0002 6.87499C22.0002 7.05733 21.9278 7.23219 21.7989 7.36112C21.6699 7.49006 21.4951 7.56249 21.3127 7.56249H13.0627C12.8804 7.56249 12.7055 7.49006 12.5766 7.36112C12.4477 7.23219 12.3752 7.05733 12.3752 6.87499ZM21.3127 10.3125H13.0627C12.8804 10.3125 12.7055 10.3849 12.5766 10.5139C12.4477 10.6428 12.3752 10.8177 12.3752 11C12.3752 11.1823 12.4477 11.3572 12.5766 11.4861C12.7055 11.6151 12.8804 11.6875 13.0627 11.6875H21.3127C21.4951 11.6875 21.6699 11.6151 21.7989 11.4861C21.9278 11.3572 22.0002 11.1823 22.0002 11C22.0002 10.8177 21.9278 10.6428 21.7989 10.5139C21.6699 10.3849 21.4951 10.3125 21.3127 10.3125ZM21.3127 14.4375H15.1252C14.9429 14.4375 14.768 14.5099 14.6391 14.6389C14.5102 14.7678 14.4377 14.9427 14.4377 15.125C14.4377 15.3073 14.5102 15.4822 14.6391 15.6111C14.768 15.7401 14.9429 15.8125 15.1252 15.8125H21.3127C21.4951 15.8125 21.6699 15.7401 21.7989 15.6111C21.9278 15.4822 22.0002 15.3073 22.0002 15.125C22.0002 14.9427 21.9278 14.7678 21.7989 14.6389C21.6699 14.5099 21.4951 14.4375 21.3127 14.4375ZM13.0412 16.3281C13.0637 16.4156 13.0687 16.5066 13.056 16.596C13.0433 16.6854 13.0131 16.7714 12.9671 16.8492C12.9212 16.9269 12.8603 16.9948 12.7881 17.049C12.7159 17.1032 12.6337 17.1427 12.5462 17.1651C12.4902 17.1802 12.4324 17.1878 12.3744 17.1875C12.2219 17.1876 12.0737 17.137 11.9531 17.0436C11.8326 16.9503 11.7465 16.8195 11.7083 16.6719C11.179 14.6145 9.101 13.0625 6.87436 13.0625C4.64772 13.0625 2.56975 14.6137 2.04038 16.6719C1.99479 16.8485 1.88091 16.9998 1.72377 17.0925C1.56664 17.1851 1.37912 17.2116 1.20249 17.166C1.02585 17.1204 0.874552 17.0065 0.781883 16.8494C0.689214 16.6923 0.662761 16.5048 0.708345 16.3281C1.18874 14.4624 2.58522 12.9516 4.35725 12.2031C3.67493 11.6776 3.17423 10.9516 2.92535 10.1271C2.67647 9.30263 2.6919 8.42091 2.96949 7.60562C3.24707 6.79033 3.77288 6.08237 4.47317 5.58103C5.17346 5.07969 6.01311 4.81012 6.87436 4.81012C7.73561 4.81012 8.57526 5.07969 9.27555 5.58103C9.97584 6.08237 10.5017 6.79033 10.7792 7.60562C11.0568 8.42091 11.0723 9.30263 10.8234 10.1271C10.5745 10.9516 10.0738 11.6776 9.39147 12.2031C11.1644 12.9516 12.5608 14.4624 13.0412 16.3281ZM6.87522 11.6875C7.41912 11.6875 7.9508 11.5262 8.40304 11.224C8.85527 10.9219 9.20775 10.4924 9.41589 9.98987C9.62403 9.48737 9.67849 8.93444 9.57238 8.40099C9.46627 7.86754 9.20436 7.37754 8.81976 6.99294C8.43517 6.60835 7.94517 6.34644 7.41172 6.24033C6.87827 6.13422 6.32534 6.18868 5.82284 6.39682C5.32034 6.60496 4.89085 6.95744 4.58868 7.40967C4.2865 7.86191 4.12522 8.39359 4.12522 8.93749C4.12522 9.66683 4.41495 10.3663 4.93068 10.882C5.4464 11.3978 6.14588 11.6875 6.87522 11.6875Z" fill="black"/>
</svg>
