<svg width="22" height="22" viewBox="0 0 22 22" fill="none" xmlns="http://www.w3.org/2000/svg">
<path d="M11 3.4375C9.36831 3.4375 7.77326 3.92135 6.41655 4.82788C5.05984 5.7344 4.00242 7.02287 3.378 8.53036C2.75357 10.0379 2.5902 11.6967 2.90853 13.297C3.22685 14.8973 4.01259 16.3673 5.16637 17.5211C6.32016 18.6749 7.79017 19.4606 9.39051 19.779C10.9909 20.0973 12.6497 19.9339 14.1571 19.3095C15.6646 18.6851 16.9531 17.6277 17.8596 16.271C18.7661 14.9142 19.25 13.3192 19.25 11.6875C19.2475 9.50023 18.3775 7.40327 16.8309 5.85663C15.2842 4.31 13.1873 3.44 11 3.4375ZM11 18.5625C9.64026 18.5625 8.31105 18.1593 7.18046 17.4039C6.04987 16.6484 5.16868 15.5747 4.64833 14.3184C4.12798 13.0622 3.99183 11.6799 4.2571 10.3463C4.52238 9.01264 5.17716 7.78763 6.13864 6.82614C7.10013 5.86466 8.32514 5.20987 9.65876 4.9446C10.9924 4.67933 12.3747 4.81548 13.631 5.33583C14.8872 5.85618 15.9609 6.73737 16.7164 7.86795C17.4718 8.99854 17.875 10.3278 17.875 11.6875C17.873 13.5102 17.148 15.2577 15.8591 16.5466C14.5702 17.8355 12.8227 18.5605 11 18.5625ZM14.9239 7.76359C14.9878 7.82744 15.0385 7.90327 15.0731 7.98673C15.1077 8.07019 15.1255 8.15965 15.1255 8.25C15.1255 8.34035 15.1077 8.42981 15.0731 8.51327C15.0385 8.59673 14.9878 8.67256 14.9239 8.73641L11.4864 12.1739C11.4225 12.2378 11.3467 12.2885 11.2632 12.323C11.1798 12.3576 11.0903 12.3754 11 12.3754C10.9097 12.3754 10.8202 12.3576 10.7368 12.323C10.6533 12.2885 10.5775 12.2378 10.5136 12.1739C10.4497 12.11 10.3991 12.0342 10.3645 11.9507C10.3299 11.8673 10.3121 11.7778 10.3121 11.6875C10.3121 11.5972 10.3299 11.5077 10.3645 11.4243C10.3991 11.3408 10.4497 11.265 10.5136 11.2011L13.9511 7.76359C14.0149 7.69967 14.0908 7.64896 14.1742 7.61437C14.2577 7.57977 14.3472 7.56196 14.4375 7.56196C14.5279 7.56196 14.6173 7.57977 14.7008 7.61437C14.7842 7.64896 14.8601 7.69967 14.9239 7.76359ZM8.25 1.375C8.25 1.19266 8.32244 1.0178 8.45137 0.888864C8.5803 0.759933 8.75517 0.6875 8.9375 0.6875H13.0625C13.2448 0.6875 13.4197 0.759933 13.5486 0.888864C13.6776 1.0178 13.75 1.19266 13.75 1.375C13.75 1.55734 13.6776 1.7322 13.5486 1.86114C13.4197 1.99007 13.2448 2.0625 13.0625 2.0625H8.9375C8.75517 2.0625 8.5803 1.99007 8.45137 1.86114C8.32244 1.7322 8.25 1.55734 8.25 1.375Z" fill="black"/>
</svg>
