<svg width="17" height="16" viewBox="0 0 17 16" fill="none" xmlns="http://www.w3.org/2000/svg">
<path d="M8.14622 11.3538L3.14622 6.35378C3.09976 6.30733 3.06291 6.25218 3.03777 6.19148C3.01263 6.13079 2.99969 6.06573 2.99969 6.00003C2.99969 5.93434 3.01263 5.86928 3.03777 5.80859C3.06291 5.74789 3.09976 5.69274 3.14622 5.64628C3.19267 5.59983 3.24782 5.56298 3.30852 5.53784C3.36921 5.5127 3.43427 5.49976 3.49997 5.49976C3.56566 5.49976 3.63072 5.5127 3.69141 5.53784C3.75211 5.56298 3.80726 5.59983 3.85372 5.64628L8.49997 10.2932L13.1462 5.64628C13.24 5.55246 13.3673 5.49976 13.5 5.49976C13.6326 5.49976 13.7599 5.55246 13.8537 5.64628C13.9475 5.7401 14.0002 5.86735 14.0002 6.00003C14.0002 6.13272 13.9475 6.25996 13.8537 6.35378L8.85372 11.3538C8.80728 11.4003 8.75214 11.4372 8.69144 11.4623C8.63074 11.4875 8.56567 11.5004 8.49997 11.5004C8.43426 11.5004 8.36919 11.4875 8.3085 11.4623C8.2478 11.4372 8.19265 11.4003 8.14622 11.3538Z" fill="black"/>
</svg>
