<svg width="17" height="17" viewBox="0 0 17 17" fill="none" xmlns="http://www.w3.org/2000/svg">
<path d="M14 3.5H11.5V3C11.5 2.60218 11.342 2.22064 11.0607 1.93934C10.7794 1.65804 10.3978 1.5 10 1.5H7C6.60218 1.5 6.22064 1.65804 5.93934 1.93934C5.65804 2.22064 5.5 2.60218 5.5 3V3.5H3C2.86739 3.5 2.74021 3.55268 2.64645 3.64645C2.55268 3.74021 2.5 3.86739 2.5 4C2.5 4.13261 2.55268 4.25979 2.64645 4.35355C2.74021 4.44732 2.86739 4.5 3 4.5H3.5V13.5C3.5 13.7652 3.60536 14.0196 3.79289 14.2071C3.98043 14.3946 4.23478 14.5 4.5 14.5H12.5C12.7652 14.5 13.0196 14.3946 13.2071 14.2071C13.3946 14.0196 13.5 13.7652 13.5 13.5V4.5H14C14.1326 4.5 14.2598 4.44732 14.3536 4.35355C14.4473 4.25979 14.5 4.13261 14.5 4C14.5 3.86739 14.4473 3.74021 14.3536 3.64645C14.2598 3.55268 14.1326 3.5 14 3.5ZM7.5 11C7.5 11.1326 7.44732 11.2598 7.35355 11.3536C7.25979 11.4473 7.13261 11.5 7 11.5C6.86739 11.5 6.74021 11.4473 6.64645 11.3536C6.55268 11.2598 6.5 11.1326 6.5 11V7C6.5 6.86739 6.55268 6.74021 6.64645 6.64645C6.74021 6.55268 6.86739 6.5 7 6.5C7.13261 6.5 7.25979 6.55268 7.35355 6.64645C7.44732 6.74021 7.5 6.86739 7.5 7V11ZM10.5 11C10.5 11.1326 10.4473 11.2598 10.3536 11.3536C10.2598 11.4473 10.1326 11.5 10 11.5C9.86739 11.5 9.74021 11.4473 9.64645 11.3536C9.55268 11.2598 9.5 11.1326 9.5 11V7C9.5 6.86739 9.55268 6.74021 9.64645 6.64645C9.74021 6.55268 9.86739 6.5 10 6.5C10.1326 6.5 10.2598 6.55268 10.3536 6.64645C10.4473 6.74021 10.5 6.86739 10.5 7V11ZM10.5 3.5H6.5V3C6.5 2.86739 6.55268 2.74021 6.64645 2.64645C6.74021 2.55268 6.86739 2.5 7 2.5H10C10.1326 2.5 10.2598 2.55268 10.3536 2.64645C10.4473 2.74021 10.5 2.86739 10.5 3V3.5Z" fill="#FF0000"/>
</svg>
