<svg width="25" height="25" viewBox="0 0 25 25" fill="none" xmlns="http://www.w3.org/2000/svg">
<path d="M20 3.5H17.75V2.75C17.75 2.55109 17.671 2.36032 17.5303 2.21967C17.3897 2.07902 17.1989 2 17 2C16.8011 2 16.6103 2.07902 16.4697 2.21967C16.329 2.36032 16.25 2.55109 16.25 2.75V3.5H8.75V2.75C8.75 2.55109 8.67098 2.36032 8.53033 2.21967C8.38968 2.07902 8.19891 2 8 2C7.80109 2 7.61032 2.07902 7.46967 2.21967C7.32902 2.36032 7.25 2.55109 7.25 2.75V3.5H5C4.60218 3.5 4.22064 3.65804 3.93934 3.93934C3.65804 4.22064 3.5 4.60218 3.5 5V20C3.5 20.3978 3.65804 20.7794 3.93934 21.0607C4.22064 21.342 4.60218 21.5 5 21.5H20C20.3978 21.5 20.7794 21.342 21.0607 21.0607C21.342 20.7794 21.5 20.3978 21.5 20V5C21.5 4.60218 21.342 4.22064 21.0607 3.93934C20.7794 3.65804 20.3978 3.5 20 3.5ZM20 8H5V5H7.25V5.75C7.25 5.94891 7.32902 6.13968 7.46967 6.28033C7.61032 6.42098 7.80109 6.5 8 6.5C8.19891 6.5 8.38968 6.42098 8.53033 6.28033C8.67098 6.13968 8.75 5.94891 8.75 5.75V5H16.25V5.75C16.25 5.94891 16.329 6.13968 16.4697 6.28033C16.6103 6.42098 16.8011 6.5 17 6.5C17.1989 6.5 17.3897 6.42098 17.5303 6.28033C17.671 6.13968 17.75 5.94891 17.75 5.75V5H20V8Z" fill="black"/>
</svg>
