<svg width="25" height="25" viewBox="0 0 25 25" fill="none" xmlns="http://www.w3.org/2000/svg">
<path d="M22.25 20C22.25 20.1989 22.171 20.3897 22.0303 20.5303C21.8897 20.671 21.6989 20.75 21.5 20.75H3.5C3.30109 20.75 3.11032 20.671 2.96967 20.5303C2.82902 20.3897 2.75 20.1989 2.75 20C2.75 19.8011 2.82902 19.6103 2.96967 19.4697C3.11032 19.329 3.30109 19.25 3.5 19.25H4.25V13.25C4.25 13.0511 4.32902 12.8603 4.46967 12.7197C4.61032 12.579 4.80109 12.5 5 12.5H7.25C7.44891 12.5 7.63968 12.579 7.78033 12.7197C7.92098 12.8603 8 13.0511 8 13.25V19.25H9.5V8.75C9.5 8.55109 9.57902 8.36032 9.71967 8.21967C9.86032 8.07902 10.0511 8 10.25 8H13.25C13.4489 8 13.6397 8.07902 13.7803 8.21967C13.921 8.36032 14 8.55109 14 8.75V19.25H15.5V4.25C15.5 4.05109 15.579 3.86032 15.7197 3.71967C15.8603 3.57902 16.0511 3.5 16.25 3.5H20C20.1989 3.5 20.3897 3.57902 20.5303 3.71967C20.671 3.86032 20.75 4.05109 20.75 4.25V19.25H21.5C21.6989 19.25 21.8897 19.329 22.0303 19.4697C22.171 19.6103 22.25 19.8011 22.25 20Z" fill="black"/>
</svg>
