<svg width="25" height="25" viewBox="0 0 25 25" fill="none" xmlns="http://www.w3.org/2000/svg">
<path d="M21.5 19.25H20.75V4.25C20.75 4.05109 20.671 3.86032 20.5303 3.71967C20.3897 3.57902 20.1989 3.5 20 3.5H14.75C14.5511 3.5 14.3603 3.57902 14.2197 3.71967C14.079 3.86032 14 4.05109 14 4.25V8H9.5C9.30109 8 9.11032 8.07902 8.96967 8.21967C8.82902 8.36032 8.75 8.55109 8.75 8.75V12.5H5C4.80109 12.5 4.61032 12.579 4.46967 12.7197C4.32902 12.8603 4.25 13.0511 4.25 13.25V19.25H3.5C3.30109 19.25 3.11032 19.329 2.96967 19.4697C2.82902 19.6103 2.75 19.8011 2.75 20C2.75 20.1989 2.82902 20.3897 2.96967 20.5303C3.11032 20.671 3.30109 20.75 3.5 20.75H21.5C21.6989 20.75 21.8897 20.671 22.0303 20.5303C22.171 20.3897 22.25 20.1989 22.25 20C22.25 19.8011 22.171 19.6103 22.0303 19.4697C21.8897 19.329 21.6989 19.25 21.5 19.25ZM15.5 5H19.25V19.25H15.5V5ZM10.25 9.5H14V19.25H10.25V9.5ZM5.75 14H8.75V19.25H5.75V14Z" fill="#AFAFAF"/>
</svg>
