<svg width="25" height="25" viewBox="0 0 25 25" fill="none" xmlns="http://www.w3.org/2000/svg">
<path d="M22.1 21.049C22.1838 21.1604 22.235 21.293 22.2476 21.4319C22.2603 21.5708 22.234 21.7104 22.1716 21.8352C22.1093 21.9599 22.0134 22.0648 21.8948 22.1381C21.7762 22.2113 21.6394 22.2501 21.5 22.25H3.5C3.36072 22.25 3.22418 22.2112 3.1057 22.1379C2.98722 22.0647 2.89147 21.9599 2.82918 21.8354C2.76689 21.7108 2.74052 21.5713 2.75303 21.4326C2.76554 21.2939 2.81643 21.1614 2.9 21.05C3.56411 20.1596 4.44971 19.4585 5.46875 19.0165C4.91017 18.5067 4.51878 17.8399 4.34595 17.1037C4.17313 16.3674 4.22695 15.5961 4.50034 14.891C4.77374 14.1859 5.25394 13.58 5.87791 13.1527C6.50188 12.7254 7.24046 12.4967 7.99672 12.4967C8.75297 12.4967 9.49156 12.7254 10.1155 13.1527C10.7395 13.58 11.2197 14.1859 11.4931 14.891C11.7665 15.5961 11.8203 16.3674 11.6475 17.1037C11.4747 17.8399 11.0833 18.5067 10.5247 19.0165C11.2599 19.3343 11.928 19.7889 12.4934 20.3562C13.0589 19.7889 13.727 19.3343 14.4622 19.0165C13.9036 18.5067 13.5122 17.8399 13.3394 17.1037C13.1666 16.3674 13.2204 15.5961 13.4938 14.891C13.7672 14.1859 14.2474 13.58 14.8713 13.1527C15.4953 12.7254 16.2339 12.4967 16.9902 12.4967C17.7464 12.4967 18.485 12.7254 19.109 13.1527C19.7329 13.58 20.2131 14.1859 20.4865 14.891C20.7599 15.5961 20.8137 16.3674 20.6409 17.1037C20.4681 17.8399 20.0767 18.5067 19.5181 19.0165C20.5419 19.4562 21.4322 20.1571 22.1 21.049ZM3.05 12.35C3.12879 12.4091 3.21845 12.452 3.31386 12.4765C3.40927 12.5009 3.50856 12.5063 3.60607 12.4924C3.70357 12.4785 3.79737 12.4455 3.88212 12.3953C3.96687 12.3451 4.04091 12.2787 4.1 12.2C4.55409 11.5945 5.14291 11.1031 5.81983 10.7646C6.49675 10.4262 7.24318 10.25 8 10.25C8.75682 10.25 9.50325 10.4262 10.1802 10.7646C10.8571 11.1031 11.4459 11.5945 11.9 12.2C11.9699 12.2931 12.0604 12.3687 12.1646 12.4208C12.2687 12.4728 12.3836 12.5 12.5 12.5C12.6164 12.5 12.7313 12.4728 12.8354 12.4208C12.9396 12.3687 13.0301 12.2931 13.1 12.2C13.5541 11.5945 14.1429 11.1031 14.8198 10.7646C15.4968 10.4262 16.2432 10.25 17 10.25C17.7568 10.25 18.5032 10.4262 19.1802 10.7646C19.8571 11.1031 20.4459 11.5945 20.9 12.2C20.9592 12.2787 21.0333 12.3451 21.1181 12.3953C21.2029 12.4454 21.2967 12.4784 21.3943 12.4923C21.4918 12.5062 21.5911 12.5007 21.6866 12.4762C21.782 12.4517 21.8717 12.4086 21.9505 12.3495C22.0293 12.2903 22.0956 12.2162 22.1458 12.1314C22.1959 12.0466 22.2289 11.9528 22.2428 11.8552C22.2567 11.7577 22.2512 11.6584 22.2267 11.5629C22.2022 11.4675 22.1592 11.3778 22.1 11.299C21.4359 10.4089 20.5503 9.70816 19.5312 9.26652C20.0898 8.75671 20.4812 8.08992 20.654 7.35368C20.8269 6.61743 20.7731 5.84614 20.4997 5.14103C20.2263 4.43592 19.7461 3.82995 19.1221 3.40266C18.4981 2.97536 17.7595 2.7467 17.0033 2.7467C16.247 2.7467 15.5084 2.97536 14.8845 3.40266C14.2605 3.82995 13.7803 4.43592 13.5069 5.14103C13.2335 5.84614 13.1797 6.61743 13.3525 7.35368C13.5253 8.08992 13.9167 8.75671 14.4753 9.26652C13.7401 9.58431 13.072 10.0389 12.5066 10.6062C11.9411 10.0389 11.273 9.58431 10.5378 9.26652C11.0964 8.75671 11.4878 8.08992 11.6606 7.35368C11.8334 6.61743 11.7796 5.84614 11.5062 5.14103C11.2328 4.43592 10.7526 3.82995 10.1287 3.40266C9.50469 2.97536 8.7661 2.7467 8.00984 2.7467C7.25359 2.7467 6.515 2.97536 5.89103 3.40266C5.26706 3.82995 4.78686 4.43592 4.51347 5.14103C4.24007 5.84614 4.18625 6.61743 4.35908 7.35368C4.5319 8.08992 4.92329 8.75671 5.48188 9.26652C4.45805 9.70658 3.56774 10.4078 2.9 11.3C2.84091 11.3787 2.79791 11.4684 2.77347 11.5638C2.74902 11.6592 2.74361 11.7585 2.75754 11.856C2.77147 11.9535 2.80446 12.0473 2.85464 12.1321C2.90483 12.2168 2.97121 12.2909 3.05 12.35Z" fill="black"/>
</svg>
