<svg width="25" height="25" viewBox="0 0 25 25" fill="none" xmlns="http://www.w3.org/2000/svg">
<path d="M3.05 12.35C3.12879 12.4091 3.21845 12.4521 3.31386 12.4766C3.40927 12.501 3.50856 12.5064 3.60607 12.4925C3.70357 12.4785 3.79737 12.4456 3.88212 12.3954C3.96687 12.3452 4.04091 12.2788 4.1 12.2C4.55409 11.5946 5.14291 11.1031 5.81983 10.7647C6.49675 10.4262 7.24318 10.25 8 10.25C8.75682 10.25 9.50325 10.4262 10.1802 10.7647C10.8571 11.1031 11.4459 11.5946 11.9 12.2C12.0195 12.359 12.1972 12.464 12.3941 12.492C12.591 12.5199 12.791 12.4685 12.95 12.3491C13.0067 12.3069 13.0569 12.2567 13.0991 12.2C13.5532 11.5946 14.142 11.1031 14.8189 10.7647C15.4958 10.4262 16.2422 10.25 16.9991 10.25C17.7559 10.25 18.5023 10.4262 19.1792 10.7647C19.8561 11.1031 20.445 11.5946 20.8991 12.2C21.0185 12.3591 21.1963 12.4643 21.3933 12.4923C21.5903 12.5204 21.7904 12.469 21.9495 12.3495C22.1087 12.2301 22.2138 12.0523 22.2419 11.8553C22.2699 11.6583 22.2185 11.4582 22.0991 11.2991C21.4352 10.4091 20.5499 9.70836 19.5312 9.26658C20.0897 8.75671 20.481 8.08992 20.6537 7.3537C20.8264 6.61749 20.7725 5.84626 20.4991 5.14122C20.2256 4.43619 19.7454 3.83029 19.1215 3.40305C18.4976 2.97581 17.759 2.74719 17.0028 2.74719C16.2466 2.74719 15.5081 2.97581 14.8841 3.40305C14.2602 3.83029 13.78 4.43619 13.5066 5.14122C13.2331 5.84626 13.1792 6.61749 13.3519 7.3537C13.5247 8.08992 13.9159 8.75671 14.4744 9.26658C13.7389 9.58463 13.0707 10.0399 12.5056 10.6081C11.9406 10.0399 11.2724 9.58463 10.5369 9.26658C11.0953 8.75671 11.4866 8.08992 11.6593 7.3537C11.832 6.61749 11.7781 5.84626 11.5047 5.14122C11.2313 4.43619 10.7511 3.83029 10.1271 3.40305C9.50317 2.97581 8.76464 2.74719 8.00844 2.74719C7.25224 2.74719 6.5137 2.97581 5.88976 3.40305C5.26581 3.83029 4.78561 4.43619 4.51218 5.14122C4.23874 5.84626 4.18484 6.61749 4.35756 7.3537C4.53028 8.08992 4.92154 8.75671 5.48 9.26658C4.45686 9.70692 3.56722 10.4081 2.9 11.3C2.84091 11.3788 2.79791 11.4685 2.77346 11.5639C2.74902 11.6593 2.74361 11.7586 2.75754 11.8561C2.77147 11.9536 2.80446 12.0474 2.85464 12.1321C2.90483 12.2169 2.97121 12.2909 3.05 12.35ZM17 4.25002C17.445 4.25002 17.88 4.38198 18.25 4.62921C18.62 4.87644 18.9084 5.22785 19.0787 5.63898C19.249 6.05011 19.2936 6.50251 19.2068 6.93897C19.12 7.37543 18.9057 7.77634 18.591 8.09101C18.2763 8.40568 17.8754 8.61997 17.439 8.70678C17.0025 8.7936 16.5501 8.74904 16.139 8.57875C15.7278 8.40845 15.3764 8.12006 15.1292 7.75005C14.882 7.38004 14.75 6.94502 14.75 6.50002C14.75 5.90328 14.9871 5.33098 15.409 4.90903C15.831 4.48707 16.4033 4.25002 17 4.25002ZM8 4.25002C8.44501 4.25002 8.88002 4.38198 9.25003 4.62921C9.62004 4.87644 9.90843 5.22785 10.0787 5.63898C10.249 6.05011 10.2936 6.50251 10.2068 6.93897C10.12 7.37543 9.90566 7.77634 9.59099 8.09101C9.27632 8.40568 8.87541 8.61997 8.43895 8.70678C8.0025 8.7936 7.5501 8.74904 7.13896 8.57875C6.72783 8.40845 6.37643 8.12006 6.12919 7.75005C5.88196 7.38004 5.75 6.94502 5.75 6.50002C5.75 5.90328 5.98705 5.33098 6.40901 4.90903C6.83097 4.48707 7.40326 4.25002 8 4.25002ZM19.5312 19.0166C20.0897 18.5067 20.481 17.8399 20.6537 17.1037C20.8264 16.3675 20.7725 15.5963 20.4991 14.8912C20.2256 14.1862 19.7454 13.5803 19.1215 13.1531C18.4976 12.7258 17.759 12.4972 17.0028 12.4972C16.2466 12.4972 15.5081 12.7258 14.8841 13.1531C14.2602 13.5803 13.78 14.1862 13.5066 14.8912C13.2331 15.5963 13.1792 16.3675 13.3519 17.1037C13.5247 17.8399 13.9159 18.5067 14.4744 19.0166C13.7389 19.3346 13.0707 19.7899 12.5056 20.3581C11.9406 19.7899 11.2724 19.3346 10.5369 19.0166C11.0953 18.5067 11.4866 17.8399 11.6593 17.1037C11.832 16.3675 11.7781 15.5963 11.5047 14.8912C11.2313 14.1862 10.7511 13.5803 10.1271 13.1531C9.50317 12.7258 8.76464 12.4972 8.00844 12.4972C7.25224 12.4972 6.5137 12.7258 5.88976 13.1531C5.26581 13.5803 4.78561 14.1862 4.51218 14.8912C4.23874 15.5963 4.18484 16.3675 4.35756 17.1037C4.53028 17.8399 4.92154 18.5067 5.48 19.0166C4.45686 19.4569 3.56722 20.1581 2.9 21.05C2.84091 21.1288 2.79791 21.2185 2.77346 21.3139C2.74902 21.4093 2.74361 21.5086 2.75754 21.6061C2.77147 21.7036 2.80446 21.7974 2.85464 21.8821C2.90483 21.9669 2.97121 22.0409 3.05 22.1C3.12879 22.1591 3.21845 22.2021 3.31386 22.2266C3.40927 22.251 3.50856 22.2564 3.60607 22.2425C3.70357 22.2285 3.79737 22.1956 3.88212 22.1454C3.96687 22.0952 4.04091 22.0288 4.1 21.95C4.55409 21.3446 5.14291 20.8531 5.81983 20.5147C6.49675 20.1762 7.24318 20 8 20C8.75682 20 9.50325 20.1762 10.1802 20.5147C10.8571 20.8531 11.4459 21.3446 11.9 21.95C12.0195 22.109 12.1972 22.214 12.3941 22.242C12.591 22.2699 12.791 22.2185 12.95 22.0991C13.0067 22.0569 13.0569 22.0067 13.0991 21.95C13.5532 21.3446 14.142 20.8531 14.8189 20.5147C15.4958 20.1762 16.2422 20 16.9991 20C17.7559 20 18.5023 20.1762 19.1792 20.5147C19.8561 20.8531 20.445 21.3446 20.8991 21.95C21.0185 22.1091 21.1963 22.2143 21.3933 22.2423C21.5903 22.2704 21.7904 22.219 21.9495 22.0995C22.1087 21.9801 22.2138 21.8023 22.2419 21.6053C22.2699 21.4083 22.2185 21.2082 22.0991 21.0491C21.4352 20.1591 20.5499 19.4584 19.5312 19.0166ZM8 14C8.44501 14 8.88002 14.132 9.25003 14.3792C9.62004 14.6264 9.90843 14.9778 10.0787 15.389C10.249 15.8001 10.2936 16.2525 10.2068 16.689C10.12 17.1254 9.90566 17.5263 9.59099 17.841C9.27632 18.1557 8.87541 18.37 8.43895 18.4568C8.0025 18.5436 7.5501 18.499 7.13896 18.3287C6.72783 18.1584 6.37643 17.8701 6.12919 17.5C5.88196 17.13 5.75 16.695 5.75 16.25C5.75 15.6533 5.98705 15.081 6.40901 14.659C6.83097 14.2371 7.40326 14 8 14ZM17 14C17.445 14 17.88 14.132 18.25 14.3792C18.62 14.6264 18.9084 14.9778 19.0787 15.389C19.249 15.8001 19.2936 16.2525 19.2068 16.689C19.12 17.1254 18.9057 17.5263 18.591 17.841C18.2763 18.1557 17.8754 18.37 17.439 18.4568C17.0025 18.5436 16.5501 18.499 16.139 18.3287C15.7278 18.1584 15.3764 17.8701 15.1292 17.5C14.882 17.13 14.75 16.695 14.75 16.25C14.75 15.6533 14.9871 15.081 15.409 14.659C15.831 14.2371 16.4033 14 17 14Z" fill="#AFAFAF"/>
</svg>
