<svg width="25" height="25" viewBox="0 0 25 25" fill="none" xmlns="http://www.w3.org/2000/svg">
<path d="M16.25 10.9999C16.25 11.1988 16.171 11.3896 16.0303 11.5302C15.8897 11.6709 15.6989 11.7499 15.5 11.7499H9.5C9.30109 11.7499 9.11032 11.6709 8.96967 11.5302C8.82902 11.3896 8.75 11.1988 8.75 10.9999C8.75 10.801 8.82902 10.6102 8.96967 10.4696C9.11032 10.3289 9.30109 10.2499 9.5 10.2499H15.5C15.6989 10.2499 15.8897 10.3289 16.0303 10.4696C16.171 10.6102 16.25 10.801 16.25 10.9999ZM15.5 13.2499H9.5C9.30109 13.2499 9.11032 13.3289 8.96967 13.4696C8.82902 13.6102 8.75 13.801 8.75 13.9999C8.75 14.1988 8.82902 14.3896 8.96967 14.5302C9.11032 14.6709 9.30109 14.7499 9.5 14.7499H15.5C15.6989 14.7499 15.8897 14.6709 16.0303 14.5302C16.171 14.3896 16.25 14.1988 16.25 13.9999C16.25 13.801 16.171 13.6102 16.0303 13.4696C15.8897 13.3289 15.6989 13.2499 15.5 13.2499ZM22.25 12.4999C22.2504 14.1832 21.8149 15.838 20.986 17.303C20.1572 18.7681 18.9631 19.9937 17.52 20.8604C16.077 21.7271 14.4341 22.2054 12.7514 22.2488C11.0686 22.2922 9.4033 21.8992 7.9175 21.108L4.72531 22.1721C4.46102 22.2602 4.1774 22.273 3.90624 22.209C3.63509 22.145 3.38711 22.0068 3.19011 21.8098C2.99311 21.6128 2.85486 21.3648 2.79087 21.0937C2.72688 20.8225 2.73967 20.5389 2.82781 20.2746L3.89187 17.0824C3.19639 15.7748 2.80793 14.326 2.756 12.8458C2.70406 11.3657 2.99001 9.89316 3.59213 8.54003C4.19425 7.1869 5.09672 5.98873 6.23105 5.03646C7.36537 4.08419 8.70173 3.40285 10.1387 3.04416C11.5756 2.68548 13.0754 2.65886 14.5242 2.96635C15.973 3.27383 17.3327 3.90733 18.5001 4.81875C19.6675 5.73018 20.6119 6.89558 21.2616 8.2265C21.9114 9.55741 22.2494 11.0189 22.25 12.4999ZM20.75 12.4999C20.7496 11.2344 20.4582 9.98593 19.8981 8.8511C19.338 7.71627 18.5244 6.7255 17.5201 5.95544C16.5159 5.18537 15.3479 4.65666 14.1067 4.41021C12.8654 4.16375 11.584 4.20616 10.3618 4.53415C9.13951 4.86215 8.00909 5.46693 7.05796 6.30171C6.10682 7.13649 5.36049 8.1789 4.87668 9.34828C4.39288 10.5177 4.18458 11.7827 4.2679 13.0454C4.35122 14.3082 4.72393 15.5349 5.35719 16.6305C5.41034 16.7225 5.44334 16.8247 5.454 16.9304C5.46467 17.0361 5.45276 17.1429 5.41906 17.2437L4.25 20.7499L7.75625 19.5808C7.83262 19.5548 7.91275 19.5415 7.99344 19.5415C8.12516 19.5417 8.2545 19.5766 8.36844 19.6427C9.62263 20.3684 11.0458 20.7509 12.4948 20.7518C13.9438 20.7527 15.3674 20.372 16.6225 19.6479C17.8776 18.9239 18.9199 17.882 19.6445 16.6272C20.369 15.3724 20.7503 13.9489 20.75 12.4999Z" fill="#AFAFAF"/>
</svg>
