<svg width="25" height="25" viewBox="0 0 25 25" fill="none" xmlns="http://www.w3.org/2000/svg">
<path d="M12.5 2.75C10.5716 2.75 8.68657 3.32183 7.08319 4.39317C5.47982 5.46451 4.23013 6.98726 3.49218 8.76884C2.75422 10.5504 2.56114 12.5108 2.93735 14.4021C3.31355 16.2934 4.24215 18.0307 5.60571 19.3943C6.96928 20.7579 8.70656 21.6865 10.5979 22.0627C12.4892 22.4389 14.4496 22.2458 16.2312 21.5078C18.0127 20.7699 19.5355 19.5202 20.6068 17.9168C21.6782 16.3134 22.25 14.4284 22.25 12.5C22.2473 9.91498 21.2192 7.43661 19.3913 5.60872C17.5634 3.78084 15.085 2.75273 12.5 2.75ZM7.445 19.0156C7.98757 18.1671 8.73501 17.4688 9.61843 16.9851C10.5019 16.5013 11.4928 16.2478 12.5 16.2478C13.5072 16.2478 14.4982 16.5013 15.3816 16.9851C16.265 17.4688 17.0124 18.1671 17.555 19.0156C16.1097 20.1397 14.331 20.7499 12.5 20.7499C10.669 20.7499 8.89032 20.1397 7.445 19.0156ZM9.5 11.75C9.5 11.1567 9.67595 10.5766 10.0056 10.0833C10.3352 9.58994 10.8038 9.20542 11.352 8.97836C11.9001 8.7513 12.5033 8.69189 13.0853 8.80764C13.6672 8.9234 14.2018 9.20912 14.6213 9.62868C15.0409 10.0482 15.3266 10.5828 15.4424 11.1647C15.5581 11.7467 15.4987 12.3499 15.2716 12.8981C15.0446 13.4462 14.6601 13.9148 14.1667 14.2444C13.6734 14.5741 13.0933 14.75 12.5 14.75C11.7044 14.75 10.9413 14.4339 10.3787 13.8713C9.81607 13.3087 9.5 12.5456 9.5 11.75ZM18.665 17.9759C17.8285 16.7638 16.6524 15.8261 15.2844 15.2806C16.0192 14.7019 16.5554 13.9085 16.8184 13.0108C17.0815 12.1132 17.0582 11.1559 16.752 10.2721C16.4457 9.38825 15.8716 8.62183 15.1096 8.0794C14.3475 7.53696 13.4354 7.24548 12.5 7.24548C11.5646 7.24548 10.6525 7.53696 9.89044 8.0794C9.12839 8.62183 8.55432 9.38825 8.24805 10.2721C7.94179 11.1559 7.91855 12.1132 8.18157 13.0108C8.44459 13.9085 8.9808 14.7019 9.71563 15.2806C8.34765 15.8261 7.17147 16.7638 6.335 17.9759C5.27804 16.7873 4.5872 15.3185 4.34567 13.7464C4.10415 12.1743 4.32224 10.5658 4.97368 9.11478C5.62512 7.66372 6.68213 6.43192 8.01745 5.56769C9.35276 4.70346 10.9094 4.24367 12.5 4.24367C14.0906 4.24367 15.6473 4.70346 16.9826 5.56769C18.3179 6.43192 19.3749 7.66372 20.0263 9.11478C20.6778 10.5658 20.8959 12.1743 20.6543 13.7464C20.4128 15.3185 19.722 16.7873 18.665 17.9759Z" fill="#AFAFAF"/>
</svg>
