<svg width="25" height="25" viewBox="0 0 25 25" fill="none" xmlns="http://www.w3.org/2000/svg">
<path d="M16.625 11.75C16.625 12.5658 16.3831 13.3634 15.9298 14.0417C15.4766 14.7201 14.8323 15.2488 14.0786 15.561C13.3248 15.8732 12.4954 15.9549 11.6953 15.7957C10.8951 15.6366 10.1601 15.2437 9.58319 14.6668C9.0063 14.0899 8.61343 13.3549 8.45427 12.5547C8.2951 11.7546 8.37679 10.9252 8.689 10.1714C9.00121 9.41769 9.52992 8.77345 10.2083 8.32019C10.8866 7.86693 11.6842 7.625 12.5 7.625C13.5936 7.62624 14.6421 8.06124 15.4154 8.83455C16.1888 9.60787 16.6238 10.6564 16.625 11.75ZM22.25 12.5C22.25 14.4284 21.6782 16.3134 20.6068 17.9168C19.5355 19.5202 18.0127 20.7699 16.2312 21.5078C14.4496 22.2458 12.4892 22.4389 10.5979 22.0627C8.70656 21.6865 6.96928 20.7579 5.60571 19.3943C4.24215 18.0307 3.31355 16.2934 2.93735 14.4021C2.56114 12.5108 2.75422 10.5504 3.49218 8.76884C4.23013 6.98726 5.47982 5.46451 7.08319 4.39317C8.68657 3.32183 10.5716 2.75 12.5 2.75C15.085 2.75273 17.5634 3.78084 19.3913 5.60872C21.2192 7.43661 22.2473 9.91498 22.25 12.5ZM20.75 12.5C20.7488 11.3896 20.5237 10.2908 20.0881 9.26934C19.6525 8.2479 19.0154 7.32481 18.2148 6.55525C17.4143 5.7857 16.4668 5.18549 15.429 4.79053C14.3911 4.39556 13.2843 4.21395 12.1747 4.25656C7.75907 4.42719 4.23782 8.105 4.25 12.5234C4.25424 14.5349 4.99609 16.4749 6.335 17.9759C6.88028 17.1851 7.57292 16.5068 8.375 15.9781C8.44339 15.933 8.52469 15.9114 8.60646 15.9169C8.68824 15.9223 8.76599 15.9543 8.82782 16.0081C9.84705 16.8897 11.1496 17.3749 12.4972 17.3749C13.8448 17.3749 15.1473 16.8897 16.1666 16.0081C16.2284 15.9543 16.3061 15.9223 16.3879 15.9169C16.4697 15.9114 16.551 15.933 16.6194 15.9781C17.4225 16.5065 18.1161 17.1848 18.6622 17.9759C20.0077 16.4694 20.751 14.5199 20.75 12.5Z" fill="black"/>
</svg>
