<svg width="25" height="25" viewBox="0 0 25 25" fill="none" xmlns="http://www.w3.org/2000/svg">
<path d="M12.5001 2.75C10.8167 2.74963 9.16201 3.18508 7.69691 4.01396C6.23182 4.84285 5.00628 6.03692 4.13959 7.47997C3.27289 8.92301 2.79457 10.5659 2.75117 12.2486C2.70777 13.9314 3.10077 15.5967 3.89193 17.0825L2.82787 20.2747C2.73973 20.539 2.72693 20.8226 2.79093 21.0938C2.85492 21.3649 2.99316 21.6129 3.19016 21.8099C3.38717 22.0069 3.63514 22.1451 3.9063 22.2091C4.17745 22.2731 4.46107 22.2603 4.72537 22.1722L7.91755 21.1081C9.22515 21.8036 10.674 22.1921 12.1541 22.244C13.6343 22.2959 15.1068 22.01 16.4599 21.4079C17.8131 20.8057 19.0112 19.9033 19.9635 18.769C20.9158 17.6346 21.5971 16.2983 21.9558 14.8613C22.3145 13.4244 22.3411 11.9246 22.0336 10.4758C21.7261 9.027 21.0926 7.66731 20.1812 6.49992C19.2698 5.33253 18.1044 4.38811 16.7735 3.73836C15.4426 3.08861 13.9811 2.75061 12.5001 2.75ZM15.5001 14.75H9.50005C9.30114 14.75 9.11038 14.671 8.96972 14.5303C8.82907 14.3897 8.75005 14.1989 8.75005 14C8.75005 13.8011 8.82907 13.6103 8.96972 13.4697C9.11038 13.329 9.30114 13.25 9.50005 13.25H15.5001C15.699 13.25 15.8897 13.329 16.0304 13.4697C16.171 13.6103 16.2501 13.8011 16.2501 14C16.2501 14.1989 16.171 14.3897 16.0304 14.5303C15.8897 14.671 15.699 14.75 15.5001 14.75ZM15.5001 11.75H9.50005C9.30114 11.75 9.11038 11.671 8.96972 11.5303C8.82907 11.3897 8.75005 11.1989 8.75005 11C8.75005 10.8011 8.82907 10.6103 8.96972 10.4697C9.11038 10.329 9.30114 10.25 9.50005 10.25H15.5001C15.699 10.25 15.8897 10.329 16.0304 10.4697C16.171 10.6103 16.2501 10.8011 16.2501 11C16.2501 11.1989 16.171 11.3897 16.0304 11.5303C15.8897 11.671 15.699 11.75 15.5001 11.75Z" fill="#222222"/>
</svg>
