<svg width="31" height="31" viewBox="0 0 31 31" fill="none" xmlns="http://www.w3.org/2000/svg">
<path d="M16.6552 22.567C16.8368 22.7487 16.9388 22.995 16.9388 23.2518C16.9388 23.5086 16.8368 23.7549 16.6552 23.9366L15.4516 25.1475C14.1787 26.4197 12.4525 27.134 10.6529 27.1334C8.85329 27.1329 7.12761 26.4174 5.8555 25.1445C4.58338 23.8716 3.86903 22.1455 3.8696 20.3458C3.87017 18.5462 4.5856 16.8206 5.85852 15.5484L8.77931 12.6277C10.002 11.404 11.646 10.6939 13.3751 10.6425C15.1041 10.5912 16.7874 11.2026 18.0805 12.3516C18.1759 12.4362 18.2537 12.5387 18.3095 12.6534C18.3653 12.7681 18.3979 12.8926 18.4056 13.0199C18.4132 13.1472 18.3957 13.2747 18.3541 13.3953C18.3124 13.5158 18.2475 13.6269 18.1629 13.7223C18.0783 13.8178 17.9757 13.8956 17.861 13.9514C17.7463 14.0071 17.6218 14.0398 17.4945 14.0474C17.3672 14.0551 17.2397 14.0376 17.1192 13.9959C16.9986 13.9543 16.8875 13.8893 16.7921 13.8047C15.8685 12.9845 14.6665 12.5482 13.4319 12.5849C12.1973 12.6216 11.0233 13.1285 10.1501 14.0021L7.22931 16.9192C6.32074 17.8278 5.81032 19.0601 5.81032 20.345C5.81032 21.6299 6.32074 22.8621 7.22931 23.7707C8.13787 24.6793 9.37015 25.1897 10.655 25.1897C11.9399 25.1897 13.1722 24.6793 14.0808 23.7707L15.2845 22.567C15.3744 22.477 15.4813 22.4055 15.5989 22.3568C15.7165 22.308 15.8425 22.2829 15.9699 22.2829C16.0972 22.2829 16.2232 22.308 16.3408 22.3568C16.4584 22.4055 16.5653 22.477 16.6552 22.567ZM25.1415 5.85609C23.8684 4.58584 22.1434 3.87246 20.345 3.87246C18.5465 3.87246 16.8216 4.58584 15.5484 5.85609L14.3448 7.06098C14.1632 7.24275 14.0612 7.48923 14.0613 7.74619C14.0614 8.00315 14.1636 8.24954 14.3454 8.43115C14.5272 8.61277 14.7736 8.71474 15.0306 8.71462C15.2876 8.71451 15.5339 8.61232 15.7156 8.43055L16.9192 7.22688C17.8278 6.31831 19.0601 5.80789 20.345 5.80789C21.6299 5.80789 22.8621 6.31831 23.7707 7.22688C24.6793 8.13544 25.1897 9.36771 25.1897 10.6526C25.1897 11.9375 24.6793 13.1698 23.7707 14.0784L20.8499 17.0016C19.9762 17.8746 18.802 18.3809 17.5674 18.4169C16.3328 18.4529 15.131 18.0159 14.2079 17.1953C14.1125 17.1107 14.0014 17.0457 13.8809 17.0041C13.7603 16.9624 13.6328 16.9449 13.5055 16.9526C13.2484 16.968 13.008 17.085 12.8372 17.2777C12.7526 17.3731 12.6876 17.4842 12.6459 17.6047C12.6043 17.7253 12.5868 17.8528 12.5944 17.9801C12.6099 18.2372 12.7268 18.4776 12.9195 18.6484C14.2123 19.7977 15.8954 20.4095 17.6245 20.3586C19.3535 20.3078 20.9977 19.5981 22.2207 18.3748L25.1415 15.454C26.4125 14.1808 27.1263 12.4553 27.1263 10.6562C27.1263 8.85723 26.4125 7.13172 25.1415 5.85852V5.85609Z" fill="#343330"/>
</svg>
