<svg width="16" height="16" viewBox="0 0 16 16" fill="none" xmlns="http://www.w3.org/2000/svg">
<path d="M13.3656 7.8413L6.36565 15.3413C6.29147 15.4205 6.19355 15.4734 6.08667 15.492C5.9798 15.5106 5.86976 15.494 5.77316 15.4446C5.67657 15.3952 5.59866 15.3157 5.55119 15.2182C5.50373 15.1206 5.48928 15.0103 5.51002 14.9038L6.42627 10.3207L2.8244 8.96818C2.74704 8.93924 2.67806 8.8916 2.62361 8.8295C2.56916 8.7674 2.53095 8.69277 2.51238 8.6123C2.49381 8.53183 2.49546 8.448 2.51719 8.36832C2.53892 8.28864 2.58004 8.21559 2.6369 8.15568L9.6369 0.655679C9.71108 0.576514 9.80899 0.523624 9.91587 0.50499C10.0227 0.486356 10.1328 0.502989 10.2294 0.55238C10.326 0.601771 10.4039 0.681239 10.4514 0.778793C10.4988 0.876346 10.5133 0.986692 10.4925 1.09318L9.57377 5.6813L13.1756 7.03193C13.2524 7.06106 13.3209 7.10865 13.3749 7.17051C13.4289 7.23236 13.4669 7.30657 13.4854 7.38658C13.5039 7.46658 13.5025 7.54992 13.4812 7.62923C13.4598 7.70854 13.4193 7.78138 13.3631 7.8413H13.3656Z" fill="black"/>
</svg>
