<svg width="17" height="18" viewBox="0 0 17 18" fill="none" xmlns="http://www.w3.org/2000/svg">
<path d="M7.40359 3.99496C7.27882 3.87051 7.12471 3.7795 6.95549 3.73032C6.78626 3.68113 6.60738 3.67537 6.43534 3.71355C6.2633 3.75172 6.10365 3.83262 5.97112 3.94877C5.83859 4.06492 5.73745 4.21258 5.67703 4.37813L2.19136 13.9659C2.1341 14.124 2.11561 14.2935 2.13743 14.4602C2.15925 14.627 2.22075 14.786 2.31677 14.9241C2.41279 15.0621 2.54053 15.1751 2.68926 15.2536C2.83799 15.332 3.00337 15.3737 3.17152 15.375C3.29533 15.3742 3.41803 15.3517 3.5341 15.3086L13.1212 11.8223C13.2868 11.7619 13.4345 11.6608 13.5507 11.5283C13.6669 11.3958 13.7479 11.2362 13.7862 11.0642C13.8244 10.8921 13.8187 10.7132 13.7696 10.5439C13.7204 10.3747 13.6294 10.2205 13.505 10.0957L7.40359 3.99496ZM4.32566 11.2L5.60066 7.69445L9.80551 11.8993L6.29926 13.1743L4.32566 11.2ZM10.625 5.28125C10.6349 4.92211 10.7219 4.56929 10.88 4.24664C11.2319 3.5434 11.896 3.15625 12.75 3.15625C13.1949 3.15625 13.4804 3.00418 13.6564 2.67746C13.7491 2.49468 13.8022 2.29444 13.8125 2.08977C13.813 1.94887 13.8695 1.81395 13.9695 1.7147C14.0695 1.61544 14.2048 1.55998 14.3457 1.56051C14.4866 1.56104 14.6215 1.61751 14.7208 1.71752C14.82 1.81752 14.8755 1.95285 14.875 2.09375C14.875 2.94773 14.3092 4.21875 12.75 4.21875C12.305 4.21875 12.0195 4.37082 11.8435 4.69754C11.7509 4.88032 11.6977 5.08056 11.6875 5.28523C11.6872 5.355 11.6732 5.42403 11.6463 5.48838C11.6193 5.55274 11.58 5.61116 11.5304 5.6603C11.4809 5.70945 11.4222 5.74836 11.3577 5.77482C11.2931 5.80127 11.224 5.81475 11.1542 5.81449C11.0845 5.81423 11.0154 5.80023 10.9511 5.77329C10.8867 5.74635 10.8283 5.707 10.7791 5.65748C10.73 5.60797 10.6911 5.54926 10.6646 5.4847C10.6382 5.42015 10.6247 5.35101 10.625 5.28125ZM9.03121 3.15625V1.5625C9.03121 1.4216 9.08718 1.28648 9.18681 1.18685C9.28644 1.08722 9.42156 1.03125 9.56246 1.03125C9.70335 1.03125 9.83848 1.08722 9.93811 1.18685C10.0377 1.28648 10.0937 1.4216 10.0937 1.5625V3.15625C10.0937 3.29715 10.0377 3.43227 9.93811 3.5319C9.83848 3.63153 9.70335 3.6875 9.56246 3.6875C9.42156 3.6875 9.28644 3.63153 9.18681 3.5319C9.08718 3.43227 9.03121 3.29715 9.03121 3.15625ZM15.7821 8.62414C15.8314 8.6735 15.8705 8.73209 15.8972 8.79656C15.9238 8.86103 15.9375 8.93013 15.9375 8.9999C15.9375 9.06968 15.9237 9.13876 15.897 9.20321C15.8703 9.26766 15.8311 9.32621 15.7817 9.37553C15.7324 9.42484 15.6738 9.46395 15.6093 9.49062C15.5448 9.5173 15.4757 9.53101 15.406 9.53098C15.3362 9.53095 15.2671 9.51717 15.2027 9.49045C15.1382 9.46372 15.0797 9.42455 15.0303 9.37519L13.9678 8.3127C13.8682 8.21301 13.8122 8.07781 13.8122 7.93684C13.8122 7.79586 13.8682 7.66066 13.9678 7.56098C14.0675 7.46129 14.2027 7.40529 14.3437 7.40529C14.4847 7.40529 14.6199 7.46129 14.7196 7.56098L15.7821 8.62414ZM16.1055 5.78527L14.5117 6.31652C14.378 6.36108 14.2321 6.35071 14.1061 6.2877C13.9801 6.22468 13.8842 6.11418 13.8397 5.98051C13.7951 5.84683 13.8055 5.70093 13.8685 5.5749C13.9315 5.44887 14.042 5.35304 14.1757 5.30848L15.7695 4.77723C15.9031 4.73267 16.049 4.74304 16.1751 4.80605C16.3011 4.86907 16.3969 4.97957 16.4415 5.11324C16.486 5.24692 16.4757 5.39282 16.4127 5.51885C16.3496 5.64488 16.2391 5.74071 16.1055 5.78527Z" fill="#343330"/>
</svg>
